<?xml version="1.0" encoding="utf-8"?>
<!-- Generator: Adobe Illustrator 23.1.1, SVG Export Plug-In . SVG Version: 6.00 Build 0)  -->
<svg version="1.1" id="Layer_1" xmlns="http://www.w3.org/2000/svg" xmlns:xlink="http://www.w3.org/1999/xlink" x="0px"
     y="0px"
     viewBox="0 0 512 512" style="enable-background:new 0 0 512 512;" xml:space="preserve">
<style type="text/css">
	.st0{fill:#BCBCBC;}
</style>
    <g>
	<path class="st0" d="M256,512c-68.4,0-132.7-26.6-181-75S0,324.4,0,256S26.6,123.3,75,75S187.6,0,256,0s132.7,26.6,181,75
		s75,112.6,75,181s-26.6,132.7-75,181S324.4,512,256,512L256,512z M256,32C132.5,32,32,132.5,32,256s100.5,224,224,224
		s224-100.5,224-224S379.5,32,256,32z"/>
        <path class="st0" d="M320,360h-32c-36.7,0-69.1-19.2-87.6-48H272c8.8,0,16-7.2,16-16s-7.2-16-16-16h-85.2c-1.8-7.7-2.8-15.7-2.8-24
		s1-16.3,2.8-24H272c8.8,0,16-7.2,16-16s-7.2-16-16-16h-71.6c18.5-28.8,50.9-48,87.6-48h24c8.8,0,16-7.2,16-16s-7.2-16-16-16h-24
		c-55,0-102.5,32.9-123.9,80H144c-8.8,0-16,7.2-16,16s7.2,16,16,16h10.1c-1.4,7.8-2.1,15.8-2.1,24c0,8.2,0.7,16.2,2.1,24H144
		c-8.8,0-16,7.2-16,16s7.2,16,16,16h20.1c21.4,47.1,68.9,80,123.9,80h32c8.8,0,16-7.2,16-16S328.8,360,320,360z"/>
</g>
</svg>
