<?xml version="1.0" encoding="utf-8"?>
<!-- Generator: Adobe Illustrator 23.1.1, SVG Export Plug-In . SVG Version: 6.00 Build 0)  -->
<svg version="1.1" id="Layer_1" xmlns="http://www.w3.org/2000/svg" xmlns:xlink="http://www.w3.org/1999/xlink" x="0px"
     y="0px"
     viewBox="0 0 512 512" style="enable-background:new 0 0 512 512;" xml:space="preserve">
<style type="text/css">
	.st0{fill:#BCBCBC;}
</style>
    <g>
	<path class="st0" d="M256,512c-11.2,0-21.2-5.8-26.8-15.5c-0.1-0.1-0.1-0.2-0.2-0.3l-127-232.4c-30.3-55.5-29.4-121.3,2.3-176.1
		C135.5,34.1,190.7,1.3,252.1,0c2.6-0.1,5.3-0.1,7.9,0c61.4,1.3,116.6,34,147.6,87.6c31.8,54.8,32.6,120.7,2.3,176.1l-127,232.4
		c-0.1,0.1-0.1,0.2-0.2,0.3C277.2,506.2,267.2,512,256,512L256,512z M256,32c-1.1,0-2.2,0-3.3,0c-50.1,1-95.2,27.8-120.6,71.7
		c-26.1,45.1-26.8,99.2-1.9,144.7L256,478.8l125.8-230.3c24.9-45.6,24.2-99.7-1.9-144.7C354.5,59.9,309.4,33.1,259.3,32
		C258.2,32,257.1,32,256,32L256,32z"/>
        <path class="st0" d="M256,232c-39.7,0-72-32.3-72-72s32.3-72,72-72s72,32.3,72,72S295.7,232,256,232z M256,120
		c-22.1,0-40,17.9-40,40s17.9,40,40,40s40-17.9,40-40S278.1,120,256,120z"/>
</g>
</svg>
